<svg width="184" height="27" viewBox="0 0 184 27" fill="none" xmlns="http://www.w3.org/2000/svg">
<path d="M23.6387 26H19.0332V15.6992H2.79102C2.46289 15.6992 2.1582 15.6406 1.87695 15.5234C1.5957 15.3945 1.34961 15.2305 1.13867 15.0312C0.939453 14.8203 0.78125 14.5742 0.664062 14.293C0.546875 14.0117 0.488281 13.7129 0.488281 13.3965V0.792969H5.05859V11.0938H19.0332V0.792969H23.6387V26ZM51.4473 26H28.2969V17.5449C28.2969 17.1113 28.3438 16.6543 28.4375 16.1738C28.543 15.6816 28.7012 15.1953 28.9121 14.7148C29.123 14.2344 29.3926 13.7773 29.7207 13.3438C30.0605 12.9102 30.4648 12.5293 30.9336 12.2012C31.4141 11.8613 31.9648 11.5918 32.5859 11.3926C33.207 11.1934 33.9102 11.0938 34.6953 11.0938H44.9961C45.6172 11.0938 46.0742 10.9414 46.3672 10.6367C46.6719 10.3203 46.8242 9.86328 46.8242 9.26562V7.24414C46.8242 6.62305 46.6719 6.1543 46.3672 5.83789C46.0625 5.52148 45.6172 5.36328 45.0312 5.36328H30.3535V0.792969H45.0312C45.8047 0.792969 46.502 0.892578 47.123 1.0918C47.7441 1.29102 48.2891 1.56055 48.7578 1.90039C49.2383 2.22852 49.6484 2.60937 49.9883 3.04297C50.3281 3.47656 50.6035 3.93359 50.8145 4.41406C51.0371 4.88281 51.1953 5.36328 51.2891 5.85547C51.3945 6.33594 51.4473 6.78711 51.4473 7.20898V9.26562C51.4473 10.4492 51.2305 11.4512 50.7969 12.2715C50.375 13.0801 49.8418 13.7422 49.1973 14.2578C48.5527 14.7617 47.8555 15.1309 47.1055 15.3652C46.3672 15.5879 45.6758 15.6992 45.0312 15.6992H34.6953C34.3203 15.6992 34.0215 15.752 33.7988 15.8574C33.5762 15.9629 33.4004 16.1035 33.2715 16.2793C33.1543 16.4551 33.0664 16.6543 33.0078 16.877C32.9492 17.0996 32.9023 17.3223 32.8672 17.5449V21.4297H51.4473V26ZM93.0195 11.3398C93.0195 12.3828 92.8906 13.3145 92.6328 14.1348C92.375 14.9551 92.0234 15.6816 91.5781 16.3145C91.1445 16.9355 90.6406 17.4688 90.0664 17.9141C89.4922 18.3594 88.8887 18.7227 88.2559 19.0039C87.6348 19.2852 87.002 19.4902 86.3574 19.6191C85.7246 19.748 85.127 19.8125 84.5645 19.8125H74.2285V15.2422H84.5645C85.1504 15.1953 85.6777 15.0781 86.1465 14.8906C86.627 14.6914 87.0371 14.4277 87.377 14.0996C87.7168 13.7715 87.9805 13.3789 88.168 12.9219C88.3555 12.4531 88.4492 11.9258 88.4492 11.3398V9.26562C88.3906 8.69141 88.2676 8.16406 88.0801 7.68359C87.8926 7.20312 87.6348 6.79297 87.3066 6.45312C86.9902 6.11328 86.6035 5.84961 86.1465 5.66211C85.6895 5.46289 85.1621 5.36328 84.5645 5.36328H74.2637C73.6543 5.36328 73.1914 5.52148 72.875 5.83789C72.5586 6.1543 72.4004 6.61133 72.4004 7.20898V26H67.8301V7.20898C67.8301 6.03711 68.041 5.04102 68.4629 4.2207C68.8965 3.40039 69.4297 2.73828 70.0625 2.23438C70.707 1.73047 71.4043 1.36719 72.1543 1.14453C72.9043 0.910156 73.5957 0.792969 74.2285 0.792969H84.5645C85.5957 0.792969 86.5215 0.927734 87.3418 1.19727C88.1621 1.45508 88.8828 1.80664 89.5039 2.25195C90.1367 2.68555 90.6699 3.18945 91.1035 3.76367C91.5488 4.33789 91.9121 4.94141 92.1934 5.57422C92.4863 6.19531 92.6973 6.82812 92.8262 7.47266C92.9551 8.10547 93.0195 8.70312 93.0195 9.26562V11.3398ZM123.395 15.8047C123.395 17.3398 123.131 18.752 122.604 20.041C122.076 21.3301 121.344 22.4434 120.406 23.3809C119.469 24.3184 118.355 25.0508 117.066 25.5781C115.789 26.0938 114.395 26.3516 112.883 26.3516H106.695C105.184 26.3516 103.783 26.0938 102.494 25.5781C101.205 25.0508 100.092 24.3184 99.1543 23.3809C98.2168 22.4434 97.4785 21.3301 96.9395 20.041C96.4121 18.752 96.1484 17.3398 96.1484 15.8047V10.9883C96.1484 9.46484 96.4121 8.05859 96.9395 6.76953C97.4785 5.46875 98.2168 4.35547 99.1543 3.42969C100.092 2.49219 101.205 1.75977 102.494 1.23242C103.783 0.705078 105.184 0.441406 106.695 0.441406H112.883C114.395 0.441406 115.789 0.705078 117.066 1.23242C118.355 1.75977 119.469 2.49219 120.406 3.42969C121.344 4.35547 122.076 5.46875 122.604 6.76953C123.131 8.05859 123.395 9.46484 123.395 10.9883V15.8047ZM118.824 10.9883C118.824 10.0859 118.678 9.27148 118.385 8.54492C118.104 7.80664 117.699 7.17969 117.172 6.66406C116.656 6.13672 116.029 5.73242 115.291 5.45117C114.564 5.1582 113.762 5.01172 112.883 5.01172H106.695C105.805 5.01172 104.99 5.1582 104.252 5.45117C103.525 5.73242 102.898 6.13672 102.371 6.66406C101.844 7.17969 101.434 7.80664 101.141 8.54492C100.859 9.27148 100.719 10.0859 100.719 10.9883V15.8047C100.719 16.707 100.859 17.5273 101.141 18.2656C101.434 18.9922 101.844 19.6191 102.371 20.1465C102.898 20.6621 103.525 21.0664 104.252 21.3594C104.99 21.6406 105.805 21.7812 106.695 21.7812H112.848C113.738 21.7812 114.547 21.6406 115.273 21.3594C116.012 21.0664 116.645 20.6621 117.172 20.1465C117.699 19.6191 118.104 18.9922 118.385 18.2656C118.678 17.5273 118.824 16.707 118.824 15.8047V10.9883ZM153.102 24.0488C153.102 24.377 153.037 24.6816 152.908 24.9629C152.791 25.2441 152.627 25.4902 152.416 25.7012C152.217 25.9004 151.977 26.0586 151.695 26.1758C151.414 26.293 151.115 26.3516 150.799 26.3516C150.518 26.3516 150.23 26.2988 149.938 26.1934C149.656 26.0879 149.404 25.918 149.182 25.6836L132.482 8.24609V26H127.912V2.74414C127.912 2.27539 128.041 1.85352 128.299 1.47852C128.568 1.0918 128.908 0.804688 129.318 0.617188C129.752 0.441406 130.197 0.400391 130.654 0.494141C131.111 0.576172 131.504 0.787109 131.832 1.12695L148.531 18.5469V0.792969H153.102V24.0488ZM183.301 23.6973C183.301 24.0254 183.242 24.3301 183.125 24.6113C183.008 24.8926 182.844 25.1387 182.633 25.3496C182.434 25.5488 182.193 25.707 181.912 25.8242C181.631 25.9414 181.326 26 180.998 26H164.51C164.088 26 163.631 25.9531 163.139 25.8594C162.658 25.7539 162.178 25.5957 161.697 25.3848C161.229 25.1738 160.777 24.9043 160.344 24.5762C159.91 24.2363 159.523 23.832 159.184 23.3633C158.855 22.8828 158.592 22.332 158.393 21.7109C158.193 21.0781 158.094 20.3691 158.094 19.584V7.20898C158.094 6.78711 158.141 6.33594 158.234 5.85547C158.34 5.36328 158.498 4.88281 158.709 4.41406C158.92 3.93359 159.195 3.47656 159.535 3.04297C159.875 2.60937 160.279 2.22852 160.748 1.90039C161.229 1.56055 161.779 1.29102 162.4 1.0918C163.021 0.892578 163.725 0.792969 164.51 0.792969H183.09V5.36328H164.51C163.912 5.36328 163.455 5.52148 163.139 5.83789C162.822 6.1543 162.664 6.62305 162.664 7.24414V19.584C162.664 20.1699 162.822 20.627 163.139 20.9551C163.467 21.2715 163.924 21.4297 164.51 21.4297H178.73V15.6992H166.566V11.0938H180.998C181.326 11.0938 181.631 11.1582 181.912 11.2871C182.193 11.4043 182.434 11.5684 182.633 11.7793C182.844 11.9902 183.008 12.2363 183.125 12.5176C183.242 12.7871 183.301 13.0801 183.301 13.3965V23.6973Z" fill="white"/>
</svg>
