<svg enable-background="new 0 0 128 128" height="64" viewBox="0 0 128 128" width="64" xmlns="http://www.w3.org/2000/svg"><g fill="#fff" stroke="#fff" stroke-width="1"><path d="m101.617 114.019h-9.962c-5.861 0-9.223-6.61-12.188-12.442-2.145-4.217-4.575-8.996-7.013-8.996h-18.477c-2.799 0-5.235 4.803-7.591 9.449-2.99 5.894-6.081 11.989-11.608 11.989h-9.96c-6.396 0-11.6-5.202-11.6-11.599v-42.943c0-6.396 5.203-11.6 11.6-11.6h76.8c6.396 0 11.6 5.204 11.6 11.6v42.943c-.001 6.396-5.204 11.599-11.601 11.599zm-47.64-25.439h18.479c4.892 0 7.653 5.433 10.578 11.184 2.563 5.041 5.214 10.255 8.622 10.255h9.962c4.19 0 7.6-3.409 7.6-7.599v-42.943c0-4.19-3.409-7.6-7.6-7.6h-76.8c-4.19 0-7.6 3.41-7.6 7.6v42.943c0 4.189 3.409 7.599 7.6 7.599h9.96c3.071 0 5.598-4.981 8.04-9.798 2.902-5.723 5.903-11.641 11.159-11.641z"/><path d="m37.116 84.066c-6.341 0-11.5-5.16-11.5-11.5 0-6.342 5.159-11.5 11.5-11.5s11.5 5.159 11.5 11.5c0 6.34-5.159 11.5-11.5 11.5zm0-19c-4.136 0-7.5 3.364-7.5 7.5 0 4.135 3.364 7.5 7.5 7.5s7.5-3.365 7.5-7.5-3.364-7.5-7.5-7.5z"/><path d="m89.741 70.168c-1.104 0-2-.896-2-2v-4.602c0-1.104.896-2 2-2s2 .896 2 2v4.602c0 1.103-.895 2-2 2z"/><path d="m89.741 83.566c-1.104 0-2-.896-2-2v-4.602c0-1.105.896-2 2-2s2 .895 2 2v4.602c0 1.104-.895 2-2 2z"/><path d="m85.62 74.566h-4.602c-1.104 0-2-.896-2-2s.896-2 2-2h4.602c1.104 0 2 .896 2 2s-.895 2-2 2z"/><path d="m98.466 74.566h-4.602c-1.104 0-2-.896-2-2s.896-2 2-2h4.602c1.104 0 2 .896 2 2s-.896 2-2 2z"/></g></svg>
