<svg width="172" height="172" viewBox="0 0 172 172" fill="none" xmlns="http://www.w3.org/2000/svg">
<path d="M104.031 37.4767C122.386 55.8313 122.386 85.5901 104.031 103.945C85.6766 122.299 55.9178 122.299 37.5632 103.945C19.2085 85.5901 19.2085 55.8313 37.5632 37.4767C55.9178 19.122 85.6766 19.122 104.031 37.4767Z" fill="#B8302C" stroke="white" stroke-width="6"/>
<path d="M97.6673 111.016L111.102 97.5807L138.679 125.158L125.244 138.593L97.6673 111.016Z" fill="white" stroke="white" stroke-width="5"/>
<g filter="url(#filter0_d_52_290)">
<circle cx="108.835" cy="41.7487" r="17.5" transform="rotate(-45 108.835 41.7487)" fill="#FBE158"/>
</g>
<path d="M115.345 57.2757L58.0693 114.551C72.7982 119.381 90.5962 117.38 105.799 102.177C117.961 90.0147 118.203 67.2052 115.345 57.2757Z" fill="white"/>
<defs>
<filter id="filter0_d_52_290" x="87.3353" y="24.2487" width="43" height="43" filterUnits="userSpaceOnUse" color-interpolation-filters="sRGB">
<feFlood flood-opacity="0" result="BackgroundImageFix"/>
<feColorMatrix in="SourceAlpha" type="matrix" values="0 0 0 0 0 0 0 0 0 0 0 0 0 0 0 0 0 0 127 0" result="hardAlpha"/>
<feOffset dy="4"/>
<feGaussianBlur stdDeviation="2"/>
<feComposite in2="hardAlpha" operator="out"/>
<feColorMatrix type="matrix" values="0 0 0 0 0 0 0 0 0 0 0 0 0 0 0 0 0 0 0.25 0"/>
<feBlend mode="normal" in2="BackgroundImageFix" result="effect1_dropShadow_52_290"/>
<feBlend mode="normal" in="SourceGraphic" in2="effect1_dropShadow_52_290" result="shape"/>
</filter>
</defs>
</svg>
