<?xml version="1.0" ?><!DOCTYPE svg  PUBLIC '-//W3C//DTD SVG 1.1//EN'  'http://www.w3.org/Graphics/SVG/1.1/DTD/svg11.dtd'><svg height="512px" id="Layer_1" style="enable-background:new 0 0 512 512;" version="1.1" viewBox="0 0 512 512" width="512px" xml:space="preserve" xmlns="http://www.w3.org/2000/svg" xmlns:xlink="http://www.w3.org/1999/xlink"><g><path fill="#FFFFFF" d="M256,224c-17.7,0-32,14.3-32,32s14.3,32,32,32c17.7,0,32-14.3,32-32S273.7,224,256,224L256,224z"/><path fill="#FFFFFF" d="M128.4,224c-17.7,0-32,14.3-32,32s14.3,32,32,32c17.7,0,32-14.3,32-32S146,224,128.4,224L128.4,224z"/><path fill="#FFFFFF" d="M384,224c-17.7,0-32,14.3-32,32s14.3,32,32,32s32-14.3,32-32S401.7,224,384,224L384,224z"/></g></svg>
