<svg width="14" height="14" viewBox="0 0 14 14" fill="none" xmlns="http://www.w3.org/2000/svg">
<path d="M13.6026 2.52048L11.4795 0.397418C11.2233 0.141126 10.8825 0 10.5201 0C10.1577 0 9.81695 0.141126 9.56068 0.39741L0.673393 9.28456C0.589038 9.36892 0.534661 9.47862 0.518632 9.59684L0.0049569 13.3812C-0.0179395 13.5499 0.0393015 13.7197 0.159743 13.8401C0.262694 13.9431 0.40169 13.9998 0.545317 13.9998C0.569682 13.9998 0.594205 13.9982 0.618702 13.9949L4.40303 13.4812C4.52126 13.4652 4.63096 13.4108 4.71532 13.3265L13.6026 4.43933C13.8589 4.18306 14 3.84232 14 3.47991C14 3.11748 13.8589 2.77675 13.6026 2.52048ZM4.07412 12.4252L1.1821 12.8177L1.57466 9.92575L7.87243 3.62807L10.3719 6.12752L4.07412 12.4252ZM12.8313 3.66808L11.1431 5.35628L8.64366 2.85684L10.3319 1.16865C10.3997 1.10082 10.4789 1.09068 10.5201 1.09068C10.5613 1.09068 10.6404 1.10082 10.7083 1.16865L12.8314 3.29171C12.8992 3.35953 12.9093 3.43873 12.9093 3.47989C12.9093 3.52105 12.8992 3.60025 12.8313 3.66808Z" fill="#BBBBBB"/>
</svg>
