<svg width="186" height="27" viewBox="0 0 186 27" fill="none" xmlns="http://www.w3.org/2000/svg">
<path d="M25.8438 9.26562C25.8438 10.3086 25.7148 11.2402 25.457 12.0605C25.1992 12.8809 24.8477 13.6074 24.4023 14.2402C23.9688 14.8613 23.4648 15.3945 22.8906 15.8398C22.3164 16.2852 21.7129 16.6543 21.0801 16.9473C20.459 17.2285 19.8262 17.4336 19.1816 17.5625C18.5488 17.6914 17.9512 17.7559 17.3887 17.7559L26.9336 26H19.8672L10.3398 17.7559H7.05273V13.1855H17.3887C17.9629 13.1387 18.4844 13.0215 18.9531 12.834C19.4336 12.6348 19.8438 12.3711 20.1836 12.043C20.5352 11.7148 20.8047 11.3223 20.9922 10.8652C21.1797 10.3965 21.2734 9.86328 21.2734 9.26562V6.38281C21.2734 6.125 21.2383 5.93164 21.168 5.80273C21.1094 5.66211 21.0273 5.5625 20.9219 5.50391C20.8281 5.43359 20.7227 5.39258 20.6055 5.38086C20.5 5.36914 20.4004 5.36328 20.3066 5.36328H5.22461V26H0.654297V3.0957C0.654297 2.7793 0.712891 2.48047 0.830078 2.19922C0.947266 1.91797 1.10547 1.67188 1.30469 1.46094C1.51562 1.25 1.76172 1.08594 2.04297 0.96875C2.32422 0.851562 2.62891 0.792969 2.95703 0.792969H20.3066C21.3262 0.792969 22.1875 0.980469 22.8906 1.35547C23.5938 1.71875 24.1621 2.18164 24.5957 2.74414C25.041 3.29492 25.3574 3.89258 25.5449 4.53711C25.7441 5.18164 25.8438 5.78516 25.8438 6.34766V9.26562ZM55.1641 26H50.5938V19.8125H34.5273V26H29.957V13.3965C29.957 11.5566 30.2734 9.86328 30.9062 8.31641C31.5391 6.76953 32.418 5.43945 33.543 4.32617C34.668 3.21289 35.998 2.3457 37.5332 1.72461C39.0684 1.10352 40.7441 0.792969 42.5605 0.792969H52.8613C53.1777 0.792969 53.4766 0.851562 53.7578 0.96875C54.0391 1.08594 54.2852 1.25 54.4961 1.46094C54.707 1.67188 54.8711 1.91797 54.9883 2.19922C55.1055 2.48047 55.1641 2.7793 55.1641 3.0957V26ZM34.5273 15.2422H50.5938V5.36328H42.5605C42.4199 5.36328 42.1211 5.38672 41.6641 5.43359C41.2188 5.46875 40.6973 5.56836 40.0996 5.73242C39.5137 5.89648 38.8926 6.14844 38.2363 6.48828C37.5801 6.82812 36.9766 7.29688 36.4258 7.89453C35.875 8.49219 35.418 9.24219 35.0547 10.1445C34.7031 11.0352 34.5273 12.1191 34.5273 13.3965V15.2422ZM85.6797 24.0488C85.6797 24.377 85.6152 24.6816 85.4863 24.9629C85.3691 25.2441 85.2051 25.4902 84.9941 25.7012C84.7949 25.9004 84.5547 26.0586 84.2734 26.1758C83.9922 26.293 83.6934 26.3516 83.377 26.3516C83.0957 26.3516 82.8086 26.2988 82.5156 26.1934C82.2344 26.0879 81.9824 25.918 81.7598 25.6836L65.0605 8.24609V26H60.4902V2.74414C60.4902 2.27539 60.6191 1.85352 60.877 1.47852C61.1465 1.0918 61.4863 0.804688 61.8965 0.617188C62.3301 0.441406 62.7754 0.400391 63.2324 0.494141C63.6895 0.576172 64.082 0.787109 64.4102 1.12695L81.1094 18.5469V0.792969H85.6797V24.0488ZM117.426 26H110.939L100.656 15.6992H97.4395V11.0938H100.656L110.939 0.792969H117.426L104.471 13.3965L117.426 26ZM95.6113 26H91.041V0.792969H95.6113V26ZM124.896 26H120.326V0.792969H124.896V26ZM155.43 24.0488C155.43 24.377 155.365 24.6816 155.236 24.9629C155.119 25.2441 154.955 25.4902 154.744 25.7012C154.545 25.9004 154.305 26.0586 154.023 26.1758C153.742 26.293 153.443 26.3516 153.127 26.3516C152.846 26.3516 152.559 26.2988 152.266 26.1934C151.984 26.0879 151.732 25.918 151.51 25.6836L134.811 8.24609V26H130.24V2.74414C130.24 2.27539 130.369 1.85352 130.627 1.47852C130.896 1.0918 131.236 0.804688 131.646 0.617188C132.08 0.441406 132.525 0.400391 132.982 0.494141C133.439 0.576172 133.832 0.787109 134.16 1.12695L150.859 18.5469V0.792969H155.43V24.0488ZM185.629 23.6973C185.629 24.0254 185.57 24.3301 185.453 24.6113C185.336 24.8926 185.172 25.1387 184.961 25.3496C184.762 25.5488 184.521 25.707 184.24 25.8242C183.959 25.9414 183.654 26 183.326 26H166.838C166.416 26 165.959 25.9531 165.467 25.8594C164.986 25.7539 164.506 25.5957 164.025 25.3848C163.557 25.1738 163.105 24.9043 162.672 24.5762C162.238 24.2363 161.852 23.832 161.512 23.3633C161.184 22.8828 160.92 22.332 160.721 21.7109C160.521 21.0781 160.422 20.3691 160.422 19.584V7.20898C160.422 6.78711 160.469 6.33594 160.562 5.85547C160.668 5.36328 160.826 4.88281 161.037 4.41406C161.248 3.93359 161.523 3.47656 161.863 3.04297C162.203 2.60937 162.607 2.22852 163.076 1.90039C163.557 1.56055 164.107 1.29102 164.729 1.0918C165.35 0.892578 166.053 0.792969 166.838 0.792969H185.418V5.36328H166.838C166.24 5.36328 165.783 5.52148 165.467 5.83789C165.15 6.1543 164.992 6.62305 164.992 7.24414V19.584C164.992 20.1699 165.15 20.627 165.467 20.9551C165.795 21.2715 166.252 21.4297 166.838 21.4297H181.059V15.6992H168.895V11.0938H183.326C183.654 11.0938 183.959 11.1582 184.24 11.2871C184.521 11.4043 184.762 11.5684 184.961 11.7793C185.172 11.9902 185.336 12.2363 185.453 12.5176C185.57 12.7871 185.629 13.0801 185.629 13.3965V23.6973Z" fill="white"/>
</svg>
