<?xml version="1.0" ?><svg id="Layer_1" style="enable-background:new 0 0 100 100;" version="1.1" viewBox="0 0 100 100" xml:space="preserve" xmlns="http://www.w3.org/2000/svg" xmlns:xlink="http://www.w3.org/1999/xlink"><path fill="#fff" stroke="#fff" d="M63.8,41.25c-0.83,0-1.5,0.67-1.5,1.5c0,6.95-5.65,12.6-12.6,12.6c-0.83,0-1.5,0.67-1.5,1.5s0.67,1.5,1.5,1.5  c8.6,0,15.6-7,15.6-15.6C65.3,41.93,64.63,41.25,63.8,41.25z"/><path fill="#fff" stroke="#fff" d="M79.69,28.04h-9.4v-2.1c0-0.83-0.67-1.5-1.5-1.5H30.59c-0.83,0-1.5,0.67-1.5,1.5v2.1h-9.4c-0.83,0-1.5,0.67-1.5,1.5v8.8  c0,7.33,5.82,13.31,13.08,13.59c2.37,4.73,6.49,8.41,11.52,10.21v8.14c-3.97,0.01-7.2,3.24-7.2,7.22v1.46h-5  c-0.83,0-1.5,0.67-1.5,1.5s0.67,1.5,1.5,1.5h6.5h25.2h6.5c0.83,0,1.5-0.67,1.5-1.5s-0.67-1.5-1.5-1.5h-5V77.5  c0-3.97-3.23-7.21-7.2-7.22v-8.14c5.03-1.8,9.15-5.48,11.52-10.21c7.26-0.29,13.08-6.26,13.08-13.59v-8.8  C81.19,28.72,80.52,28.04,79.69,28.04z M21.19,38.34v-7.3h7.9v11.71c0,0.63,0.04,1.26,0.1,1.88c0.02,0.19,0.04,0.38,0.06,0.57  c0.05,0.43,0.12,0.87,0.2,1.3c0.04,0.21,0.07,0.41,0.12,0.62c0.11,0.49,0.23,0.98,0.38,1.46c0.02,0.08,0.04,0.16,0.06,0.23  C25.01,47.95,21.19,43.58,21.19,38.34z M60.79,77.5v1.46h-22.2V77.5c0-2.33,1.89-4.22,4.22-4.22h1.48h10.8h1.48  C58.9,73.28,60.79,75.18,60.79,77.5z M53.59,62.98v7.3h-7.8v-7.3c0.15,0.03,0.3,0.04,0.45,0.06c0.48,0.08,0.97,0.16,1.46,0.21  c0.47,0.05,0.94,0.06,1.41,0.07c0.2,0.01,0.39,0.03,0.59,0.03c0.2,0,0.39-0.02,0.59-0.03c0.47-0.01,0.94-0.03,1.41-0.07  c0.5-0.05,0.98-0.13,1.46-0.21C53.3,63.02,53.45,63.01,53.59,62.98z M53.44,59.95c-0.24,0.05-0.48,0.09-0.72,0.13  c-0.28,0.05-0.56,0.09-0.85,0.13c-0.22,0.03-0.44,0.05-0.66,0.07c-0.42,0.04-0.85,0.06-1.28,0.06c-0.16,0-0.31,0-0.47,0  c-0.43-0.01-0.85-0.03-1.28-0.06c-0.22-0.02-0.44-0.04-0.66-0.07c-0.29-0.04-0.57-0.08-0.85-0.13c-0.24-0.04-0.48-0.08-0.72-0.13  c-5.56-1.21-10.14-5.04-12.38-10.14c-0.23-0.52-0.43-1.05-0.6-1.58c-0.01-0.04-0.03-0.07-0.04-0.1c-0.17-0.53-0.31-1.08-0.43-1.62  c-0.01-0.05-0.03-0.09-0.04-0.14c-0.11-0.52-0.19-1.05-0.25-1.58c-0.01-0.07-0.03-0.14-0.03-0.21c-0.06-0.6-0.09-1.21-0.09-1.82  V29.54v-2.1H67.3v2.1v13.21c0,0.61-0.03,1.22-0.09,1.82c-0.01,0.07-0.02,0.14-0.03,0.21c-0.06,0.53-0.14,1.06-0.25,1.58  c-0.01,0.05-0.03,0.09-0.04,0.14c-0.12,0.55-0.26,1.09-0.43,1.62c-0.01,0.04-0.03,0.07-0.04,0.1c-0.18,0.53-0.38,1.06-0.6,1.58  C63.57,54.91,58.99,58.74,53.44,59.95z M78.19,38.34c0,5.24-3.81,9.6-8.81,10.47c0.02-0.08,0.04-0.16,0.06-0.23  c0.14-0.48,0.27-0.97,0.38-1.46c0.04-0.2,0.08-0.41,0.12-0.62c0.08-0.43,0.15-0.86,0.2-1.3c0.02-0.19,0.05-0.38,0.06-0.57  c0.06-0.62,0.1-1.25,0.1-1.88V31.04h7.9V38.34z"/></svg>
